<svg version="1.1" id="Layer_1" xmlns="http://www.w3.org/2000/svg" xmlns:xlink="http://www.w3.org/1999/xlink" x="0px" y="0px"
	 width="100%" viewBox="0 0 1024 1024" enable-background="new 0 0 1024 1024" xml:space="preserve">
<path fill="#000000" opacity="1.000000" stroke="none" 
	d="
M366.376221,252.538086 
	C369.641632,249.483017 369.929108,253.187531 370.605865,254.320877 
	C379.230011,268.763672 387.694672,283.302002 396.164246,297.836823 
	C423.583099,344.890747 450.982941,391.955780 478.413757,439.002747 
	C479.398682,440.692017 480.261139,442.535706 482.364807,443.825562 
	C484.236969,441.488190 483.621338,438.762634 483.622833,436.252838 
	C483.657410,377.253754 483.648712,318.254608 483.650848,259.255493 
	C483.651154,251.642532 483.658417,251.638657 491.236298,251.638229 
	C522.235840,251.636444 553.235352,251.632721 584.234924,251.640533 
	C591.214661,251.642288 591.242004,251.662338 591.242493,258.387970 
	C591.247131,323.553558 591.850525,388.726532 591.058960,453.882538 
	C590.344238,512.712708 571.439697,565.441101 533.853210,611.117859 
	C491.075195,663.103638 435.794922,694.573547 370.962982,710.328003 
	C345.129669,716.605713 318.985046,720.998535 292.499146,723.522583 
	C277.921875,724.911804 263.338348,725.781982 248.716217,726.331665 
	C244.724167,726.481750 243.586395,725.016235 243.591415,721.153381 
	C243.678986,653.654541 243.683624,586.155396 243.581268,518.656616 
	C243.575134,514.614746 245.048325,513.576538 248.832306,513.587830 
	C282.998169,513.690063 317.164642,513.702698 351.330322,513.571716 
	C355.364868,513.556274 356.419434,515.018982 356.400696,518.818848 
	C356.280029,543.317871 356.334656,567.817749 356.365875,592.317383 
	C356.368347,594.251526 355.913910,596.296936 357.287079,598.422485 
	C371.734741,596.617065 385.560913,592.638123 398.595306,586.283691 
	C442.092133,565.078064 469.988556,531.159607 481.143066,483.854492 
	C482.510468,478.055511 483.634247,472.198273 483.767578,466.165955 
	C483.845886,462.623840 482.407745,461.285614 479.101318,461.357941 
	C477.435730,461.394379 475.768341,461.339233 474.101746,461.339508 
	C400.769531,461.351349 327.437286,461.367889 254.105072,461.362610 
	C251.963135,461.362457 249.772522,461.719818 246.673294,460.473938 
	C286.567383,391.154449 326.370270,321.993378 366.376221,252.538086 
z"/>
<path fill="#000000" opacity="1.000000" stroke="none" 
	d="
M801.346924,543.895508 
	C797.810364,584.013000 778.918945,613.396606 742.902344,630.998779 
	C729.439758,637.578247 714.973755,640.430969 699.917908,640.376160 
	C671.924377,640.274231 643.928894,640.226501 615.937134,640.474731 
	C610.782349,640.520386 609.548645,638.899902 609.553589,633.949402 
	C609.678589,508.643188 609.679749,383.336731 609.552795,258.030487 
	C609.547729,253.042450 610.851379,251.467636 615.965271,251.522400 
	C639.624084,251.775787 663.300537,252.111557 686.944214,251.458954 
	C703.136536,251.012024 718.891174,252.120331 733.761597,258.759369 
	C764.098328,272.303497 782.376465,295.527069 788.390320,328.274170 
	C797.067688,375.524139 768.886902,417.959534 728.328735,432.200073 
	C727.072083,432.641296 725.716125,432.819580 725.161011,434.386292 
	C726.389771,436.432007 728.645203,436.761932 730.613892,437.445557 
	C766.876404,450.037994 789.160706,475.413757 798.878357,512.196777 
	C801.578491,522.417114 801.628235,532.917480 801.346924,543.895508 
z"/>
<path fill="#000000" opacity="1.000000" stroke="none" 
	d="
M661.567627,754.395447 
	C644.772400,735.299316 644.367432,705.471436 658.596313,686.602783 
	C671.064758,670.068542 694.581116,661.787537 715.816467,666.873352 
	C735.912720,671.686340 752.494141,689.318176 755.104614,710.126831 
	C760.133118,750.209167 728.661072,775.092407 697.261414,772.199951 
	C683.413940,770.924316 671.387634,765.032898 661.567627,754.395447 
z"/>
</svg>